<?xml version="1.0" encoding="utf-8"?>
<!-- Generator: Adobe Illustrator 22.0.1, SVG Export Plug-In . SVG Version: 6.00 Build 0)  -->
<svg version="1.1" id="Capa_1" xmlns="http://www.w3.org/2000/svg" xmlns:xlink="http://www.w3.org/1999/xlink" x="0px" y="0px"
	 viewBox="0 0 226.4 143.3" style="enable-background:new 0 0 226.4 143.3;" xml:space="preserve">
<style type="text/css">
	.st0{display:none;}
</style>
<g id="Layer_1">
	<g>
		<path d="M111.7,70.3c-20.2,0-36.6,16.4-36.6,36.6s16.4,36.6,36.6,36.6s36.6-16.4,36.6-36.6C148.3,86.7,131.9,70.3,111.7,70.3z
			 M111.7,132.5c-14.1,0-25.6-11.5-25.6-25.6s11.5-25.6,25.6-25.6s25.6,11.5,25.6,25.6S125.8,132.5,111.7,132.5z"/>
	</g>
	<path d="M113,91.9c4.8,0,9.1,2,12.2,5.2c-3.1-4.2-8-6.9-13.6-6.9c-9.3,0-16.9,7.6-16.9,16.9c0,4.5,1.8,8.7,4.7,11.7
		c-2.1-2.8-3.3-6.3-3.3-10C96.1,99.4,103.6,91.9,113,91.9z"/>
	<g>
		<path d="M153.6,15.8c-2.1-3.4-4.3-6.9-6.4-10.4c-1.1-1.7-2.4-3.4-3-5.3C143.8-0.1,143.4,0,143,0c-21.9,0-43.8,0-65.6,0
			c-0.4,0-0.8-0.1-1.2,0.1c-0.5,1.6-1.6,2.7-2.5,4c-3.4,5.1-6.9,10.1-10.4,15.2l-0.1,0.1h92.7C155.2,18.2,154.3,17,153.6,15.8z
			 M121.8,15c0,0.8-0.3,1-1,1c-7.1,0-14.3,0-21.4,0c-0.8,0-1.1-0.2-1.1-1c0-3.1,0-6.1,0-9.2c0-0.8,0.3-1,1-1c3.6,0,7.2,0,10.7,0
			s7.1,0,10.6,0c0.8,0,1.1,0.2,1.1,1.1C121.8,8.9,121.8,12,121.8,15z"/>
		<path d="M205.8,18.9c-1.2-3.1-2.5-6.3-3.7-9.4c-0.2-0.6-0.6-0.9-1.2-0.9c-8.6,0-17.2,0-25.8,0c-0.5,0-0.9,0.2-1.2,0.7
			c-1.4,3.3-2.8,6.5-4.2,9.8c-0.1,0.2-0.1,0.3-0.2,0.5H206C205.9,19.3,205.9,19.1,205.8,18.9z"/>
		<path d="M36.9,18.6c-0.2-1.6-0.7-3.1-1-4.6c-0.1-0.5-0.3-0.7-0.9-0.7c-5,0-10,0-15.1,0c-0.4,0-0.6,0.1-0.8,0.6
			c-0.4,1.5-0.8,3-1.4,4.4c-0.1,0.2-0.1,0.3-0.1,0.4L36.9,18.6C36.9,18.7,36.9,18.7,36.9,18.6z"/>
		<g>
			<path d="M87.4,36.9c-1-0.6-2.2-0.9-3.5-0.9s-2.5,0.3-3.5,0.9c-1,0.6-1.9,1.4-2.5,2.5c-0.6,1-0.9,2.2-0.9,3.5s0.3,2.5,0.9,3.5
				s1.4,1.9,2.5,2.5c1,0.6,2.2,0.9,3.5,0.9s2.5-0.3,3.5-0.9c1-0.6,1.9-1.4,2.5-2.5c0.6-1,0.9-2.2,0.9-3.5s-0.3-2.5-0.9-3.5
				C89.3,38.3,88.5,37.5,87.4,36.9z"/>
			<path d="M131.2,37.2c-0.8-0.7-2-1-3.6-1h-4.2V44h4.2c1.6,0,2.8-0.3,3.6-1s1.2-1.6,1.2-2.9C132.4,38.8,132,37.9,131.2,37.2z"/>
			<polygon points="144.2,45.3 151.6,45.3 147.9,36.7 			"/>
			<path d="M47.8,36.9c-1-0.6-2.2-0.9-3.5-0.9s-2.5,0.3-3.5,0.9c-1,0.6-1.9,1.4-2.5,2.5c-0.6,1-0.9,2.2-0.9,3.5s0.3,2.5,0.9,3.5
				c0.6,1,1.4,1.9,2.5,2.5c1,0.6,2.2,0.9,3.5,0.9s2.5-0.3,3.5-0.9c1-0.6,1.9-1.4,2.5-2.5c0.6-1,0.9-2.2,0.9-3.5s-0.3-2.5-0.9-3.5
				C49.6,38.3,48.8,37.5,47.8,36.9z"/>
			<path d="M208.5,23H18.9C8.7,23,0.5,31.2,0.5,41.3v20.3h226.4V41.3C226.9,31.2,218.7,23,208.5,23z M31.9,36.2H21.3v5.9h9.4v3.1
				h-9.4v7.5h-3.6V33.1h14.2C31.9,33.1,31.9,36.2,31.9,36.2z M53.4,48c-0.9,1.5-2.2,2.7-3.8,3.6c-1.6,0.9-3.4,1.3-5.4,1.3
				s-3.8-0.4-5.4-1.3C37.2,50.7,36,49.5,35,48c-0.9-1.5-1.4-3.2-1.4-5.1s0.5-3.6,1.4-5.1s2.2-2.7,3.8-3.6c1.6-0.9,3.4-1.3,5.4-1.3
				s3.8,0.4,5.4,1.3s2.8,2.1,3.8,3.6c0.9,1.5,1.4,3.2,1.4,5.2C54.8,44.8,54.3,46.5,53.4,48z M72.4,36.2h-6.5v16.4h-3.6V36.2h-6.5
				v-3.1h16.5L72.4,36.2L72.4,36.2z M93.1,48c-0.9,1.5-2.2,2.7-3.8,3.6c-1.6,0.9-3.4,1.3-5.4,1.3s-3.8-0.4-5.4-1.3
				c-1.6-0.9-2.8-2.1-3.8-3.6c-0.9-1.5-1.4-3.2-1.4-5.1s0.5-3.6,1.4-5.1s2.2-2.7,3.8-3.6c1.6-0.9,3.4-1.3,5.4-1.3s3.8,0.4,5.4,1.3
				s2.8,2.1,3.8,3.6c0.9,1.5,1.4,3.2,1.4,5.2C94.4,44.8,94,46.5,93.1,48z M101.4,46.4c0.6,1,1.4,1.9,2.5,2.5s2.3,0.9,3.6,0.9
				c1.5,0,2.9-0.3,4-1v-6.1h3.4v7.8c-1,0.8-2.2,1.4-3.5,1.8c-1.3,0.4-2.7,0.6-4.1,0.6c-2,0-3.8-0.4-5.4-1.3
				c-1.6-0.9-2.8-2.1-3.8-3.6c-0.9-1.5-1.4-3.2-1.4-5.2c0-1.9,0.5-3.6,1.4-5.2c0.9-1.5,2.2-2.7,3.8-3.6s3.4-1.3,5.4-1.3
				c1.6,0,3.1,0.3,4.5,0.8c1.3,0.5,2.5,1.3,3.4,2.4l-2.3,2.2c-1.5-1.5-3.3-2.2-5.4-2.2c-1.4,0-2.6,0.3-3.7,0.9s-1.9,1.4-2.5,2.4
				s-0.9,2.2-0.9,3.6C100.5,44.2,100.8,45.3,101.4,46.4z M132.5,52.6l-4-5.7c-0.2,0-0.4,0-0.8,0h-4.4v5.7h-3.6V33.1h8
				c1.7,0,3.2,0.3,4.4,0.8c1.3,0.6,2.2,1.4,2.9,2.4s1,2.3,1,3.7c0,1.5-0.4,2.7-1.1,3.8c-0.7,1.1-1.7,1.8-3.1,2.4l4.5,6.4
				C136.3,52.6,132.5,52.6,132.5,52.6z M154.7,52.6l-1.9-4.5H143l-1.9,4.5h-3.7l8.8-19.5h3.6l8.8,19.5H154.7z M175.2,36.2h-10.6v5.9
				h9.4v3.1h-9.4v7.5H161V33.1h14.2V36.2z M181.9,27.7h4.1l-4.8,3.8h-3L181.9,27.7z M182.3,52.6h-3.6V33.1h3.6V52.6z M202.2,52.6
				l-1.9-4.5h-9.7l-1.9,4.5H185l8.8-19.5h3.6l8.8,19.5H202.2z"/>
			<polygon points="191.7,45.3 199,45.3 195.3,36.7 			"/>
			<path d="M50.2,46.4c-0.6,1-1.4,1.9-2.5,2.5c-1,0.6-2.2,0.9-3.5,0.9s-2.5-0.3-3.5-0.9c-1-0.6-1.9-1.4-2.5-2.5
				c-0.6-1-0.9-2.2-0.9-3.5s0.3-2.5,0.9-3.5c0.6-1,1.4-1.9,2.5-2.5c1-0.6,2.2-0.9,3.5-0.9s2.5,0.3,3.5,0.9c1,0.6,1.9,1.4,2.5,2.5
				c0.6,1,0.9,2.2,0.9,3.5C51.1,44.2,50.8,45.3,50.2,46.4z"/>
			<path d="M127.6,44h-4.2v-7.8h4.2c1.6,0,2.8,0.3,3.6,1s1.2,1.6,1.2,2.9c0,1.2-0.4,2.2-1.2,2.9C130.4,43.6,129.2,44,127.6,44z"/>
			<path d="M144.2,45.3l3.6-8.5l3.7,8.5H144.2z"/>
			<path d="M191.7,45.3l3.6-8.5l3.7,8.5H191.7z"/>
		</g>
	</g>
	<g>
		<path d="M64,105.3c4.7,3.8,7.1,9,7.1,15.6c0,4.2-1,8-3.1,11.4c-2.1,3.4-5.1,6.1-9.3,8.1c-4.1,2-9.2,3-15.2,3
			c-5,0-9.8-0.7-14.4-2.1c-4.6-1.4-8.6-3.4-11.8-5.9l5.5-10.1c2.6,2.1,5.7,3.8,9.3,5c3.6,1.2,7.4,1.8,11.2,1.8
			c4.6,0,8.2-0.9,10.8-2.8c2.6-1.9,3.9-4.5,3.9-7.8c0-3.6-1.4-6.3-4.2-8.1c-2.8-1.8-7.7-2.7-14.5-2.7H22.5l3.6-37.9H67v10.9H37
			l-1.5,16.1h6.7C52,99.5,59.3,101.4,64,105.3z"/>
	</g>
	<g>
		<path d="M194.4,102.6c3.6,1.7,6.4,4.2,8.4,7.4c2,3.2,3,6.9,3,11.1c0,4.5-1.1,8.4-3.3,11.7c-2.2,3.4-5.2,6-9,7.8s-8.1,2.7-12.8,2.7
			c-9.4,0-16.7-2.9-22-8.8c-5.2-5.9-7.8-14.3-7.8-25.3c0-7.7,1.4-14.3,4.2-19.8C158,84,161.9,79.9,167,77c5.1-2.8,11-4.3,17.6-4.3
			c3.5,0,6.9,0.4,10,1.1c3.1,0.8,5.8,1.9,8.1,3.3l-4.7,9.6c-3.4-2.2-7.8-3.3-13.1-3.3c-6.6,0-11.8,2-15.5,6.1s-5.6,9.9-5.6,17.6v0.1
			c2-2.4,4.6-4.1,7.8-5.4c3.1-1.2,6.7-1.8,10.6-1.8C186.7,100,190.8,100.9,194.4,102.6z M189.8,130.2c2.5-2.1,3.7-5,3.7-8.5
			c0-3.6-1.2-6.4-3.7-8.5s-5.8-3.1-10-3.1c-4.1,0-7.5,1.1-10.1,3.3c-2.6,2.2-3.9,5-3.9,8.4c0,3.3,1.3,6.1,3.8,8.3
			c2.5,2.2,6,3.3,10.5,3.3C184,133.4,187.3,132.4,189.8,130.2z"/>
	</g>
</g>
<g id="guides" class="st0">
	
		<text transform="matrix(1 0 0 1 -129.5642 213.6241)" style="display:inline; font-family:'Montserrat-SemiBold'; font-size:12px;">Montserrat semibold</text>
</g>
</svg>
