<?xml version="1.0" encoding="utf-8"?>
<!-- Generator: Adobe Illustrator 22.0.1, SVG Export Plug-In . SVG Version: 6.00 Build 0)  -->
<svg version="1.1" id="Capa_1" xmlns="http://www.w3.org/2000/svg" xmlns:xlink="http://www.w3.org/1999/xlink" x="0px" y="0px"
	 viewBox="0 0 226.4 76.6" style="enable-background:new 0 0 226.4 76.6;" xml:space="preserve">
<style type="text/css">
	.st0{display:none;}
</style>
<g id="Layer_1">
	<g>
		<path d="M111.7,3.6C91.5,3.6,75.1,20,75.1,40.2s16.4,36.6,36.6,36.6s36.6-16.4,36.6-36.6C148.3,20,131.9,3.6,111.7,3.6z
			 M111.7,65.8c-14.1,0-25.6-11.5-25.6-25.6s11.5-25.6,25.6-25.6s25.6,11.5,25.6,25.6S125.8,65.8,111.7,65.8z"/>
	</g>
	<path d="M104.2,53.7c0.1-0.1,0.1-0.4,0-0.7c-0.2-0.6-0.6-1.1-0.8-1.6c-0.5-1-0.9-2-1.3-3c-0.7-2.1-1.2-4.2-1.3-6.4
		c-0.1-3.5,1-7.1,3.4-9.6c2.3-2.3,5.6-3.4,8.8-3.7c2.4-0.2,4.8,0.1,7.1,0.4c1.6,0.3,3.2,0.6,4.8,1.2c-1.1-2.1-3.8-3.8-5.8-4.9
		c-2.3-1.2-5-1.8-7.6-1.8c-7.1,0-13.6,4.6-16,11.3C94,39.5,94.6,45,97.1,49.2c0.8,1.3,1.8,2.4,3.1,3.3c1,0.7,2.2,1.2,3.4,1.4
		C103.9,53.8,104.1,53.8,104.2,53.7z"/>
	<g>
		<path d="M64,38.6c4.7,3.8,7.1,9,7.1,15.6c0,4.2-1,8-3.1,11.4c-2.1,3.4-5.1,6.1-9.3,8.1c-4.1,2-9.2,3-15.2,3c-5,0-9.8-0.7-14.4-2.1
			c-4.6-1.4-8.6-3.4-11.8-5.9l5.5-10.1c2.6,2.1,5.7,3.8,9.3,5c3.6,1.2,7.4,1.8,11.2,1.8c4.6,0,8.2-0.9,10.8-2.8
			c2.6-1.9,3.9-4.5,3.9-7.8c0-3.6-1.4-6.3-4.2-8.1C51,44.9,46.1,44,39.3,44H22.5l3.6-37.9H67V17H37l-1.5,16.1h6.7
			C52,32.8,59.3,34.7,64,38.6z"/>
	</g>
	<g>
		<path d="M194.4,35.9c3.6,1.7,6.4,4.2,8.4,7.4c2,3.2,3,6.9,3,11.1c0,4.5-1.1,8.4-3.3,11.7c-2.2,3.4-5.2,6-9,7.8s-8.1,2.7-12.8,2.7
			c-9.4,0-16.7-2.9-22-8.8c-5.2-5.9-7.8-14.3-7.8-25.3c0-7.7,1.4-14.3,4.2-19.8c2.9-5.4,6.8-9.5,11.9-12.4c5.1-2.8,11-4.3,17.6-4.3
			c3.5,0,6.9,0.4,10,1.1c3.1,0.8,5.8,1.9,8.1,3.3L198,20c-3.4-2.2-7.8-3.3-13.1-3.3c-6.6,0-11.8,2-15.5,6.1s-5.6,9.9-5.6,17.6v0.1
			c2-2.4,4.6-4.1,7.8-5.4c3.1-1.2,6.7-1.8,10.6-1.8C186.7,33.3,190.8,34.2,194.4,35.9z M189.8,63.5c2.5-2.1,3.7-5,3.7-8.5
			c0-3.6-1.2-6.4-3.7-8.5s-5.8-3.1-10-3.1c-4.1,0-7.5,1.1-10.1,3.3c-2.6,2.2-3.9,5-3.9,8.4c0,3.3,1.3,6.1,3.8,8.3
			c2.5,2.2,6,3.3,10.5,3.3C184,66.7,187.3,65.7,189.8,63.5z"/>
	</g>
</g>
<g id="guides" class="st0">
	
		<text transform="matrix(1 0 0 1 -129.5642 146.9574)" style="display:inline; font-family:'Montserrat-SemiBold'; font-size:12px;">Montserrat semibold</text>
</g>
</svg>
