<?xml version="1.0" encoding="utf-8"?>
<!-- Generator: Adobe Illustrator 22.0.1, SVG Export Plug-In . SVG Version: 6.00 Build 0)  -->
<svg version="1.1" id="Capa_1" xmlns="http://www.w3.org/2000/svg" xmlns:xlink="http://www.w3.org/1999/xlink" x="0px" y="0px"
	 viewBox="0 0 515.6 501.3" style="enable-background:new 0 0 515.6 501.3;" xml:space="preserve">
<style type="text/css">
	.st0{fill:url(#SVGID_1_);}
	.st1{fill:url(#SVGID_2_);}
	.st2{fill:url(#SVGID_3_);}
</style>
<g>
	<g>
		
			<linearGradient id="SVGID_1_" gradientUnits="userSpaceOnUse" x1="132.3734" y1="577.65" x2="383.2266" y2="577.65" gradientTransform="matrix(1 0 0 1 0 -254)">
			<stop  offset="0" style="stop-color:#711C80"/>
			<stop  offset="1" style="stop-color:#2F02B7"/>
		</linearGradient>
		<path class="st0" d="M257.8,193.7c-69.2,0-125.4,58.3-125.4,130s56.2,130,125.4,130s125.4-58.3,125.4-130S327,193.7,257.8,193.7z
			 M257.8,433.7c-58.6,0-106.1-49.3-106.1-110s47.6-110,106.1-110s106.1,49.3,106.1,110S316.4,433.7,257.8,433.7z"/>
	</g>
</g>
<g>
	<g>
		
			<linearGradient id="SVGID_2_" gradientUnits="userSpaceOnUse" x1="274.2416" y1="545.1706" x2="333.3454" y2="545.1706" gradientTransform="matrix(1 0 0 1 0 -254)">
			<stop  offset="0" style="stop-color:#711C80"/>
			<stop  offset="1" style="stop-color:#2F02B7"/>
		</linearGradient>
		<path class="st1" d="M288.6,247.5c-4.6-2.7-10.5-0.9-13.1,3.9c-2.6,4.8-0.9,10.9,3.8,13.6c21.5,12.4,34.8,35.8,34.8,61.2
			c0,5.5,4.3,10,9.6,10c5.3,0,9.6-4.5,9.6-10C333.3,293.5,316.2,263.4,288.6,247.5z"/>
	</g>
</g>
<g>
	<g>
		
			<linearGradient id="SVGID_3_" gradientUnits="userSpaceOnUse" x1="0" y1="504.65" x2="515.6" y2="504.65" gradientTransform="matrix(1 0 0 1 0 -254)">
			<stop  offset="0" style="stop-color:#711C80"/>
			<stop  offset="1" style="stop-color:#2F02B7"/>
		</linearGradient>
		<path class="st2" d="M485.4,167.2h-10v-31.3c0-5.7-4.5-10.4-10-10.4H425c-5.5,0-10,4.7-10,10.4v31.3h-76.5
			c-9.6-5.3-19.9-9.7-30.2-13v-28.7h30.2c16.6,0,30.2-14.1,30.2-31.3V31.5c0-17.2-13.6-31.3-30.2-31.3H177.3
			c-16.6,0-30.2,14.1-30.2,31.3v62.6c0,17.2,13.6,31.3,30.2,31.3h30.2v28.8c-10.5,3.3-20.6,7.7-30.2,13c-23.9,0-53.9,0-76.5,0v-31.3
			c0-5.7-4.5-10.4-10-10.4H50.4c-5.5,0-10,4.7-10,10.4v31.3H30.2C13.6,167.2,0,181.3,0,198.5C0,208.8,0,437.9,0,449
			c0,17.2,13.6,31.3,30.2,31.3h147c24.7,13.7,52.5,20.9,80.6,20.9c28.1,0,55.9-7.2,80.6-20.9h147c16.6,0,30.2-14.1,30.2-31.3
			c0-10.3,0-239.4,0-250.5C515.6,181.3,502,167.2,485.4,167.2z M435,146.3h20.2v20.9H435V146.3z M177.2,104.6c-5.5,0-10-4.7-10-10.4
			V31.5c0-5.7,4.5-10.4,10-10.4h161.1c5.5,0,10,4.7,10,10.4v62.6c0,5.7-4.5,10.4-10,10.4H177.2V104.6z M288,125.5v23.7
			c-9.9-1.9-20.1-2.8-30.2-2.8c-10.1,0-20.3,0.9-30.2,2.8v-23.7H288z M60.4,146.3h20.2v20.9H60.4V146.3z M20.2,198.5
			c0-5.7,4.5-10.5,10-10.5h117.3c-13.6,11.9-25.5,26.1-34.9,41.9H20.2V198.5z M20.2,250.6h81.6c-9.9,22.9-15.2,47.9-15.2,73.2
			s5.2,50.2,15.2,73.1H20.2V250.6z M30.2,459.5c-5.5,0-10-4.7-10-10.4v-31.3h92.4c9.5,15.8,21.3,29.9,34.9,41.8L30.2,459.5
			L30.2,459.5z M257.8,480.3c-83.5,0-151.1-70.1-151.1-156.6c0-86.1,67.2-156.6,151.1-156.6c83.4,0,151.1,70.1,151.1,156.6
			C408.9,410.5,341,480.3,257.8,480.3z M495.4,449c0,5.7-4.5,10.4-10,10.4H368.1c13.6-11.9,25.5-26,34.9-41.8h92.4V449z
			 M495.4,396.8h-81.6c9.9-22.9,15.2-47.8,15.2-73.1c0-25.3-5.2-50.2-15.2-73.1h81.6V396.8z M495.4,229.8H403
			c-9.5-15.8-21.3-29.9-34.9-41.8h117.3c5.5,0,10,4.7,10,10.4V229.8z"/>
	</g>
</g>
</svg>
