<?xml version="1.0" encoding="utf-8"?>
<!-- Generator: Adobe Illustrator 22.0.1, SVG Export Plug-In . SVG Version: 6.00 Build 0)  -->
<svg version="1.1" id="Capa_1" xmlns="http://www.w3.org/2000/svg" xmlns:xlink="http://www.w3.org/1999/xlink" x="0px" y="0px"
	 viewBox="0 0 515.6 501.3" style="enable-background:new 0 0 515.6 501.3;" xml:space="preserve">
<style type="text/css">
	.st0{fill:url(#XMLID_2_);}
	.st1{fill:url(#XMLID_3_);}
	.st2{fill:url(#XMLID_4_);}
	.st3{fill:url(#XMLID_5_);}
	.st4{fill:url(#SVGID_1_);}
	.st5{fill:url(#SVGID_2_);}
</style>
<g id="XMLID_1738_">
	<g id="XMLID_1739_">
		<g id="XMLID_1740_">
			
				<linearGradient id="XMLID_2_" gradientUnits="userSpaceOnUse" x1="146.0728" y1="551.8814" x2="383.784" y2="551.8814" gradientTransform="matrix(1 0 0 1 0 -416)">
				<stop  offset="0" style="stop-color:#711C80"/>
				<stop  offset="1" style="stop-color:#2F02B7"/>
			</linearGradient>
			<path id="XMLID_1742_" class="st0" d="M301.9,245.9c-5.8,0-11.6-0.4-16.9-1.1H285h-0.2h-0.3c-1.2-0.1-2.7-0.4-3.9-0.7h-0.1
				c-4.5-0.8-9.5-2.4-15-4.9c-7.4,3.3-19.6,6.8-37.7,6.8c-26.8,0-47-14.2-59.7-42.1c-10.6-23-16-53.9-20.9-86.3
				c-3.7-24.2,1.7-45.8,15.9-62.3c17.3-20.2,45.1-29.4,64.9-29.4c6.6,0,12.2,1,16.6,2.8c8,3.4,17.1,5.6,20.5,5.6s12.5-2.3,20.5-5.6
				c5.1-2.2,11.6-3.1,19.2-2.8c1.2,0,2.7,0.1,4,0.3c2.3,0.1,4.6,0.5,7,1c0.4,0.1,1,0.1,1.5,0.3c0.8,0.1,1.6,0.3,2.4,0.4
				c0.5,0.1,1.1,0.3,1.7,0.4c2.7,0.7,5.4,1.5,8.1,2.3c4.2,1.5,8.1,3,11.9,5l0.3,0.1c2.6,1.2,5.1,2.7,7.7,4.3
				c0.3,0.1,0.5,0.4,0.8,0.5c1.7,1.1,3.4,2.3,5.1,3.5l0.8,0.7c10,7.9,17.5,17.6,22.2,28.9c0.8,1.9,1.6,4,2.2,6c0.5,1.7,1,3.4,1.5,5
				c0.8,4,1.6,8,1.9,12.3c0,1,0.1,2.2,0.1,3.1s0,2.2,0,3.3v0.3c0,4.3-0.4,8.9-1.1,13.4c-6.9,44.7-14.2,83.6-33.5,106.6
				c-0.4,0.5-1,1.1-1.6,1.7C335.8,239.2,320.5,245.9,301.9,245.9z M289.1,216.4c4,0.5,8.3,0.8,12.9,0.8c10.2,0,18-3.3,24.4-10.4
				c0.3-0.3,0.5-0.7,0.8-1c14.6-17.5,21.1-53.8,27.2-92.8c0.5-3.3,0.7-6.5,0.8-9.5v-0.1c0-0.7,0-1.5,0-2c0-0.7,0-1.5-0.1-2.2
				c-0.1-2.7-0.5-5.3-1.1-7.7c-0.3-1-0.4-2-0.8-3c-0.4-1.2-0.8-2.4-1.2-3.5c-2.7-6.8-7.3-12.5-13.4-17.3l-0.5-0.4
				c-1-0.8-2.2-1.6-3.3-2.4l-0.5-0.4c-1.7-1.1-3.4-2.2-5.3-3l-0.3-0.1c-2.6-1.2-5.3-2.4-8.1-3.3c-1.9-0.5-3.9-1.1-5.7-1.7
				c-0.4-0.1-0.8-0.1-1.1-0.3c-0.5-0.1-1.1-0.3-1.6-0.3c-0.3,0-0.7-0.1-1-0.1c-1.6-0.3-3.1-0.4-4.7-0.5c-0.8-0.1-1.7-0.1-2.6-0.1
				c-0.5,0-1,0-1.6,0c-3.3,0-5.1,0.4-5.6,0.5c-8.5,3.5-22.1,7.9-31.4,7.9s-22.9-4.3-31.4-7.9c-0.4-0.1-2.3-0.5-5.6-0.5
				c-12.7,0-31.7,6-43.1,19.4c-8.7,10.2-11.9,23.3-9.5,39.3c10.8,70.6,21.4,104.2,52.4,104.2c15.6,0,24.2-3.4,27.1-4.9
				c3.3-1.6,6.9-2.4,10.4-2.4c3.3,0,6.6,0.7,9.6,2c4.3,1.9,8.1,3.3,10.8,3.9h0.1c0.7,0.1,1.6,0.3,2.4,0.4L289.1,216.4z"/>
		</g>
		<g id="XMLID_1745_">
			
				<linearGradient id="XMLID_3_" gradientUnits="userSpaceOnUse" x1="250.6158" y1="443.0542" x2="279.2486" y2="443.0542" gradientTransform="matrix(1 0 0 1 0 -416)">
				<stop  offset="0" style="stop-color:#711C80"/>
				<stop  offset="1" style="stop-color:#2F02B7"/>
			</linearGradient>
			<rect id="XMLID_1746_" x="250.6" y="0.3" class="st1" width="28.6" height="53.5"/>
		</g>
	</g>
	<g id="XMLID_1747_">
		
			<linearGradient id="XMLID_4_" gradientUnits="userSpaceOnUse" x1="45.6052" y1="712.983" x2="469.8907" y2="712.983" gradientTransform="matrix(1 0 0 1 0 -416)">
			<stop  offset="0" style="stop-color:#711C80"/>
			<stop  offset="1" style="stop-color:#2F02B7"/>
		</linearGradient>
		<path id="XMLID_1748_" class="st2" d="M469.9,374.5h-351c-40.5,0-73.3-32.8-73.3-73.3v-8.4c0-40.5,32.8-73.3,73.3-73.3h340.2
			c6,0,10.8,4.9,10.8,10.8v5.6c0,6.2-4.3,11.9-10.4,13.3c-19.6,4.7-34.3,22.3-34.3,43.4v8.4c0,24.6,20,44.7,44.7,44.7L469.9,374.5
			L469.9,374.5z M118.9,248.2c-24.6,0-44.7,20-44.7,44.7v8.4c0,24.6,20,44.7,44.7,44.7h293c-9.6-12.3-15.2-27.9-15.2-44.7v-8.4
			c0-16.8,5.7-32.2,15.2-44.7H118.9z"/>
	</g>
	<g id="XMLID_1751_">
		
			<linearGradient id="XMLID_5_" gradientUnits="userSpaceOnUse" x1="14.6819" y1="839.4877" x2="500.9182" y2="839.4877" gradientTransform="matrix(1 0 0 1 0 -416)">
			<stop  offset="0" style="stop-color:#711C80"/>
			<stop  offset="1" style="stop-color:#2F02B7"/>
		</linearGradient>
		<path id="XMLID_1752_" class="st3" d="M500.7,501H88c-40.5,0-73.3-32.8-73.3-73.3v-8.4c0-40.5,32.8-73.3,73.3-73.3h401
			c6.5,0,11.8,5.3,11.8,11.8v6.8c0,5.3-3.7,9.9-8.9,10.8c-20.3,4.2-35.6,22.2-35.6,43.8v8.4c0,21.3,15,39.3,35.2,43.6
			c5.4,1.1,9.5,6,9.5,11.6V501H500.7z M88,374.6c-24.6,0-44.7,20-44.7,44.7v8.4c0,24.6,20,44.7,44.7,44.7h354.7
			c-9.6-12.3-15.2-27.9-15.2-44.7v-8.4c0-16.8,5.7-32.2,15.2-44.7H88z"/>
	</g>
</g>
<linearGradient id="SVGID_1_" gradientUnits="userSpaceOnUse" x1="206.8592" y1="711.0851" x2="410.716" y2="711.0851" gradientTransform="matrix(1 0 0 1 0 -416)">
	<stop  offset="0" style="stop-color:#711C80"/>
	<stop  offset="1" style="stop-color:#2F02B7"/>
</linearGradient>
<path class="st4" d="M402.7,303.1H214.9c-4.4,0-8-3.6-8-8l0,0c0-4.4,3.6-8,8-8h187.8c4.4,0,8,3.6,8,8l0,0
	C410.7,299.5,407.1,303.1,402.7,303.1z"/>
<linearGradient id="SVGID_2_" gradientUnits="userSpaceOnUse" x1="158.0571" y1="837.1794" x2="435.5494" y2="837.1794" gradientTransform="matrix(1 0 0 1 0 -416)">
	<stop  offset="0" style="stop-color:#711C80"/>
	<stop  offset="1" style="stop-color:#2F02B7"/>
</linearGradient>
<path class="st5" d="M427.5,429.2H166.1c-4.4,0-8-3.6-8-8l0,0c0-4.4,3.6-8,8-8h261.4c4.4,0,8,3.6,8,8l0,0
	C435.5,425.6,432,429.2,427.5,429.2z"/>
</svg>
