<?xml version="1.0" encoding="utf-8"?>
<!-- Generator: Adobe Illustrator 22.0.1, SVG Export Plug-In . SVG Version: 6.00 Build 0)  -->
<svg version="1.1" id="Capa_1" xmlns="http://www.w3.org/2000/svg" xmlns:xlink="http://www.w3.org/1999/xlink" x="0px" y="0px"
	 viewBox="0 0 515.6 501.3" style="enable-background:new 0 0 515.6 501.3;" xml:space="preserve">
<style type="text/css">
	.st0{fill:url(#SVGID_1_);}
</style>
<g>
	<g>
		
			<linearGradient id="SVGID_1_" gradientUnits="userSpaceOnUse" x1="52.7878" y1="820.65" x2="462.8122" y2="820.65" gradientTransform="matrix(1 0 0 1 0 -570)">
			<stop  offset="0" style="stop-color:#711C80"/>
			<stop  offset="1" style="stop-color:#2F02B7"/>
		</linearGradient>
		<path class="st0" d="M462.8,8c0-0.1,0-0.2,0-0.3c0-0.1,0-0.3-0.1-0.4c0-0.1-0.1-0.2-0.1-0.4c0-0.1-0.1-0.2-0.1-0.4
			c0-0.1-0.1-0.2-0.1-0.3c0-0.1-0.1-0.2-0.1-0.3s-0.1-0.2-0.1-0.3c-0.1-0.1-0.1-0.2-0.2-0.3c-0.1-0.1-0.1-0.2-0.2-0.3
			s-0.1-0.2-0.2-0.3c-0.1-0.1-0.1-0.2-0.2-0.3c-0.1-0.1-0.1-0.2-0.2-0.3c-0.1-0.2-0.3-0.3-0.4-0.4l-0.1,0.3c0,0-0.1,0-0.1-0.1
			c-0.1-0.1-0.3-0.3-0.5-0.4c-0.1-0.1-0.2-0.1-0.3-0.2c-0.1-0.1-0.2-0.2-0.3-0.2c-0.1-0.1-0.2-0.1-0.3-0.2c-0.1-0.1-0.2-0.1-0.3-0.2
			s-0.2-0.1-0.3-0.2c-0.1-0.1-0.2-0.1-0.4-0.2c-0.1,0-0.2-0.1-0.3-0.1s-0.3-0.1-0.4-0.1s-0.2-0.1-0.3-0.1c-0.1,0-0.3-0.1-0.4-0.1
			s-0.2,0-0.3,0c-0.1,0-0.3,0-0.4-0.1c-0.2,0-0.4,0-0.6,0c-0.1,0-0.1,0-0.2,0H61c-0.1,0-0.1,0-0.2,0c-0.2,0-0.4,0-0.6,0
			c-0.1,0-0.3,0-0.4,0.1c-0.1,0-0.2,0-0.3,0.1c-0.1,0-0.3,0.1-0.4,0.1c-0.1,0-0.2,0-0.3,0.1c-0.1,0-0.3,0.1-0.4,0.1
			c-0.1,0-0.4-0.3-0.5-0.3c-0.1,0-0.2,0.1-0.3,0.2c-0.1,0.4-0.3,0.4-0.4,0.5c-0.1,0.1-0.2,0.1-0.3,0.2c-0.1,0.1-0.2,0.1-0.3,0.2
			c-0.1,0.1-0.2,0.2-0.3,0.2c-0.1,0.1-0.2,0.1-0.3,0.2c-0.2,0.1-0.3,0.3-0.5,0.4c0,0-0.1,0-0.1,0.1l-0.1,0.1C55,4,54.8,4.2,54.7,4.3
			c-0.1,0.1-0.1,0.2-0.2,0.3c-0.1,0.1-0.2,0.2-0.2,0.3C54.1,5,54.1,5.1,54,5.3c-0.1-0.1-0.2,0-0.2,0.1c-0.1,0.1-0.1,0.2-0.2,0.4
			c0,0.1-0.1,0.2-0.1,0.3c0,0.1-0.3,0.4-0.3,0.5c0,0.1-0.1,0.2-0.1,0.3C53.1,7,53,7.1,53,7.3c0,0.1-0.1,0.2-0.1,0.4
			c0,0.1,0,0.3-0.1,0.4c0,0.1,0,0.2,0,0.3c0,0.3,0,0.4,0,0.6v483c0,0.3,0,0.4,0,0.6c0,0.1,0,0.2,0,0.3c0,0.1,0,0.3,0.1,0.4
			c0,0.1,0.1,0.2,0.1,0.4c0,0.1,0.1,0.2,0.1,0.4c0,0.1,0.1,0.2,0.1,0.3c0,0.1,0.1,0.2,0.1,0.4c0,0.1,0.1,0.2,0.1,0.3
			c0.1,0.1,0.1,0.2,0.2,0.4c0.1,0.1,0.1,0.2,0.2,0.3c0.1,0.1,0.1,0.2,0.2,0.3c0.1,0.1,0.1,0.2,0.2,0.3c0.1,0.1,0.1,0.2,0.2,0.3
			c0.1,0.2,0.3,0.3,0.4,0.4l0.1,0.1c0,0,0.1,0,0.1,0.1c0.2,0.1,0.3,0.3,0.5,0.4c0.1,0.1,0.2,0.1,0.3,0.2c0.1,0.1,0.2,0.2,0.3,0.2
			c0.1,0.1,0.2,0.1,0.3,0.2c0.1,0.1,0.2,0.1,0.3,0.2c0.1,0.1,0.2,0.1,0.3,0.2c0.1,0.1,0.2,0.1,0.3,0.2c0.1,0,0.2,0.1,0.3,0.1
			c0.1,0,0.2,0.1,0.4,0.1c0.1,0,0.2,0.1,0.3,0.1c0.1,0,0.2,0.1,0.4,0.1c0.1,0,0.3,0,0.4,0.1c0.1,0,0.2,0,0.3,0c0.2,0,0.5,0,0.7,0
			h393.5c0.2,0,0.5,0,0.7,0c0.1,0,0.2,0,0.3,0s0.3,0,0.4-0.1c0.1,0,0.3-0.1,0.4-0.1c0.1,0,0.2-0.1,0.3-0.1c0.1,0,0.2-0.1,0.4-0.1
			c0.1,0,0.2-0.1,0.3-0.1s0.2-0.1,0.3-0.2c0.1-0.1,0.2-0.1,0.3-0.2c0.1-0.1,0.2-0.1,0.3-0.2c0.1-0.1,0.2-0.1,0.3-0.2
			c0.1-0.1,0.2-0.2,0.3-0.2c0.1-0.1,0.2-0.1,0.3-0.2c0.2-0.1,0.3-0.3,0.5-0.4c0,0,0.1,0,0.1-0.1l0.1-0.1c0.1-0.1,0.3-0.3,0.4-0.4
			s0.1-0.2,0.2-0.3c0.1-0.1,0.2-0.2,0.2-0.3c0.1-0.1,0.1-0.2,0.2-0.3s0.1-0.2,0.2-0.3s0.1-0.2,0.2-0.4c0-0.1,0.1-0.2,0.1-0.3
			c0-0.1,0.1-0.2,0.1-0.3s0.1-0.2,0.1-0.3c0-0.1,0.1-0.2,0.1-0.4c0-0.1,0.1-0.2,0.1-0.4c0-0.1,0-0.3,0.1-0.4c0-0.1,0-0.2,0-0.3
			c0-0.2,0-0.4,0-0.6V8.6C462.8,8.4,462.8,8.1,462.8,8z M434.4,15.9l-22.8,20H103.8l-22.8-20H434.4z M69.3,26.2L92,46.2v408
			l-22.8,19.9C69.3,474.1,69.3,26.2,69.3,26.2z M81.1,484.4l22.8-19.9h307.9l22.8,19.9H81.1z M218.4,430c11.9,0,22.8-3.8,31-10.1
			v30.1h-62.1V430L218.4,430L218.4,430z M187.3,415.3v-19.9h60.9c-3.7,11.4-15.7,19.9-30,19.9H187.3z M187.3,380.8v-37.3H257
			c-4.9,8.2-7.6,17.4-7.6,27.1v10h-62.1V380.8z M188.5,329.1c3.7-11.4,15.7-19.9,30-19.9c4.6,0,8.3-3.3,8.3-7.3v-10.7
			c3.7,0.5,7.5,0.8,11.3,0.8c20.2,0,38.5-7.9,50.9-20.3v45.7c-7.3,2.9-14.1,7-19.7,12L188.5,329.1L188.5,329.1z M187.3,232.9v-79
			h62.6c2.9,20.8,18.1,38.1,39,46.4v31.1c-0.1,0.4-0.1,0.8-0.1,1.4c0,24.5-22.8,44.5-50.6,44.5S187.3,257.4,187.3,232.9z
			 M266.1,370.8c0-24.5,22.8-44.6,50.7-44.6s50.6,20,50.6,44.6v79H266v-79H266.1z M338,314.9c-6.7-2-13.8-3-21.2-3
			c-3.8,0-7.5,0.3-11.2,0.8V204.9c3.7,0.5,7.4,0.8,11.2,0.8c4.6,0,8.3-3.3,8.3-7.3s-3.8-7.3-8.3-7.3c-28,0-50.6-19.9-50.6-44.5
			c0-4-3.8-7.3-8.3-7.3h-50.2c3.5-26.4,26-47.9,55.9-53.2c42.3,6.6,74.5,38.9,74.5,77.7v151H338L338,314.9z M190.7,139.4H179
			c-4.6,0-8.3,3.3-8.3,7.3V233c0,23.8,16.2,44.4,39.3,53.6v8.3c-20.1,1.7-38.5,9.4-52.2,21.2V163.9c0-35.3,26.6-65.3,63-75.2
			C204.1,101.2,193,119.2,190.7,139.4z M172.9,323.8c-1.5,4-2.2,8.2-2.2,12.5v51.9v34.4v27.1H148v-79
			C148,352,157.7,335.1,172.9,323.8z M406.9,145.5v304.3h-22.8v-79.1c0-20.2-11.8-38.2-29.5-48.7V163.9c0-46.3-38.7-84.9-89.2-92.4
			c-0.3-0.1-0.5-0.1-0.8-0.1c-5.4-0.7-10.9-1.3-16.5-1.3c-58.9,0-106.7,42.1-106.7,93.4v171.8c-6.4,10.5-9.9,22.5-9.9,35.2v79h-22.8
			V50.4h298.2v62.7 M423.5,113.2V46.1l22.8-19.9v447.8L423.5,454V145.5"/>
	</g>
</g>
</svg>
