<?xml version="1.0" encoding="utf-8"?>
<!-- Generator: Adobe Illustrator 22.0.1, SVG Export Plug-In . SVG Version: 6.00 Build 0)  -->
<svg version="1.1" id="Capa_1" xmlns="http://www.w3.org/2000/svg" xmlns:xlink="http://www.w3.org/1999/xlink" x="0px" y="0px"
	 viewBox="0 0 515.6 501.3" style="enable-background:new 0 0 515.6 501.3;" xml:space="preserve">
<style type="text/css">
	.st0{fill:url(#SVGID_1_);}
	.st1{fill:url(#SVGID_2_);}
	.st2{fill:url(#SVGID_3_);}
	.st3{fill:url(#SVGID_4_);}
	.st4{fill:url(#SVGID_5_);}
	.st5{fill:url(#SVGID_6_);}
</style>
<linearGradient id="SVGID_1_" gradientUnits="userSpaceOnUse" x1="338" y1="-194" x2="402" y2="-194" gradientTransform="matrix(1 0 0 -1 0 234)">
	<stop  offset="0" style="stop-color:#711C80"/>
	<stop  offset="1" style="stop-color:#2F02B7"/>
</linearGradient>
<path class="st0" d="M370,396c17.6,0,32,14.4,32,32s-14.4,32-32,32s-32-14.4-32-32S352.4,396,370,396z M370,444c8.8,0,16-7.2,16-16
	s-7.2-16-16-16s-16,7.2-16,16S361.2,444,370,444z"/>
<linearGradient id="SVGID_2_" gradientUnits="userSpaceOnUse" x1="114" y1="-194" x2="178" y2="-194" gradientTransform="matrix(1 0 0 -1 0 234)">
	<stop  offset="0" style="stop-color:#711C80"/>
	<stop  offset="1" style="stop-color:#2F02B7"/>
</linearGradient>
<path class="st1" d="M146,396c17.6,0,32,14.4,32,32s-14.4,32-32,32s-32-14.4-32-32S128.4,396,146,396z M146,444c8.8,0,16-7.2,16-16
	s-7.2-16-16-16s-16,7.2-16,16S137.2,444,146,444z"/>
<linearGradient id="SVGID_3_" gradientUnits="userSpaceOnUse" x1="5.999" y1="-15.9" x2="514.2" y2="-15.9" gradientTransform="matrix(1 0 0 -1 0 234)">
	<stop  offset="0" style="stop-color:#711C80"/>
	<stop  offset="1" style="stop-color:#2F02B7"/>
</linearGradient>
<path class="st2" d="M22.4,401.4V204.8c0-9.2,3.1-17.7,8.4-24.6h-0.2C17.1,180.2,6,169.1,6,155.6C5.9,142.1,17,131,30.5,131H58
	c-16.7-13.5-27.4-34.2-27.4-57.4C30.5,33.1,63.6,0,104.2,0c33.2,0,61.2,22,70.5,52.1c3.5-1.8,7.3-2.9,11.5-2.9h37.5
	c7.2,0,13.9,2,19.8,5.8c5.8-3.8,12.7-5.8,19.8-5.8h50.6c7.2,0,13.9,2,19.8,5.8c5.8-3.8,12.7-5.8,19.8-5.8h45.8
	c13.5,0,24.6,11.1,24.6,24.6V131h16.4c13.5,0,24.6,11.1,24.6,24.6s-11.1,24.6-24.6,24.6h-9c0.3,0.4,0.7,0.8,1,1.2l58.2,84
	c4.7,6.9,7.3,14.9,7.3,23.4v112.6c9,0,16.4,7.4,16.4,16.4v32.8c0,9-7.4,16.4-16.4,16.4h-66.2c-11.4,19.6-32.5,32.8-56.7,32.8
	S329.3,486.6,318,467H201.8c-11.4,19.6-32.5,32.8-56.7,32.8S99.8,486.6,88.5,467H22.4c-9,0-16.4-7.4-16.4-16.4v-32.8
	C5.9,408.8,13.3,401.4,22.4,401.4z M88.6,401.4c11.4-19.6,32.5-32.8,56.7-32.8s45.4,13.2,56.7,32.8h116c3.6-6.1,8.2-11.7,13.5-16.4
	H258l-82-40.9H38.7v57.4h49.9V401.4z M104.2,16.4c-31.7,0-57.4,25.7-57.4,57.4S72.6,131,104.2,131s57.4-25.7,57.4-57.4
	S135.9,16.4,104.2,16.4z M150.5,131h11.1v-11C158.3,124,154.5,127.8,150.5,131z M263.2,65.5c-4.2,0-8.2,1.3-11.6,3.8v20.8h-16.4
	V69.4c-3.4-2.4-7.4-3.8-11.6-3.8H186c-4.5,0-8.2,3.7-8.2,8.2V131h57.4V90.1h16.4V131h73.7V69.4c-3.4-2.4-7.4-3.8-11.6-3.8
	L263.2,65.5L263.2,65.5z M407.3,73.7c0-4.5-3.7-8.2-8.2-8.2h-45.8c-4.2,0-8.2,1.3-11.6,3.8V131h65.5V73.7H407.3z M448.3,155.6
	c0-4.5-3.7-8.2-8.2-8.2H30.5c-4.5,0-8.2,3.7-8.2,8.2s3.7,8.2,8.2,8.2h409.6C444.5,163.8,448.3,160.2,448.3,155.6z M476.6,274.7
	l-58.2-84c-4.6-6.7-12.2-10.6-20.2-10.6h-335c-13.5,0-24.6,11.1-24.6,24.6v122.9h141.2l82,40.9h219.3v-79.8
	C481,283.8,479.5,278.9,476.6,274.7z M481,385h-63.3c5.3,4.7,9.9,10.3,13.5,16.4H481V385z M497.4,450.5v-32.8h-59.5
	c1.3,5.2,2.1,10.8,2.1,16.4s-0.8,11.2-2.1,16.4H497.4L497.4,450.5z M374.6,483.3c27.1,0,49.2-22,49.2-49.2s-22-49.2-49.2-49.2
	s-49.2,22-49.2,49.2S347.4,483.3,374.6,483.3z M311.2,450.5c-1.3-5.2-2.1-10.8-2.1-16.4s0.8-11.2,2.1-16.4H208.6
	c1.3,5.2,2.1,10.8,2.1,16.4s-0.8,11.2-2.1,16.4H311.2z M145.1,483.3c27.1,0,49.2-22,49.2-49.2s-22-49.2-49.2-49.2S96,406.9,96,434.1
	C96,461.3,118,483.3,145.1,483.3z M22.4,450.5h59.5c-1.3-5.2-2.1-10.8-2.1-16.4s0.8-11.2,2.1-16.4H22.4
	C22.4,417.6,22.4,450.5,22.4,450.5z"/>
<linearGradient id="SVGID_4_" gradientUnits="userSpaceOnUse" x1="274" y1="-18" x2="442" y2="-18" gradientTransform="matrix(1 0 0 -1 0 234)">
	<stop  offset="0" style="stop-color:#711C80"/>
	<stop  offset="1" style="stop-color:#2F02B7"/>
</linearGradient>
<path class="st3" d="M274,196h116.3l51.7,77.6V308H274V196z M290,292h136v-13.6L381.7,212H290V292z"/>
<linearGradient id="SVGID_5_" gradientUnits="userSpaceOnUse" x1="58" y1="-18" x2="258" y2="-18" gradientTransform="matrix(1 0 0 -1 0 234)">
	<stop  offset="0" style="stop-color:#711C80"/>
	<stop  offset="1" style="stop-color:#2F02B7"/>
</linearGradient>
<path class="st4" d="M58,212c0-8.8,7.2-16,16-16h184v112H58V212z M74,292h168v-80H74V292z"/>
<linearGradient id="SVGID_6_" gradientUnits="userSpaceOnUse" x1="66" y1="158" x2="146" y2="158" gradientTransform="matrix(1 0 0 -1 0 234)">
	<stop  offset="0" style="stop-color:#711C80"/>
	<stop  offset="1" style="stop-color:#2F02B7"/>
</linearGradient>
<path class="st5" d="M106,116c-22.1,0-40-17.9-40-40s17.9-40,40-40s40,17.9,40,40S128.1,116,106,116z M106,52c-13.2,0-24,10.8-24,24
	s10.8,24,24,24s24-10.8,24-24S119.2,52,106,52z"/>
</svg>
